<svg width="3302" height="1497" xmlns="http://www.w3.org/2000/svg" xmlns:xlink="http://www.w3.org/1999/xlink" xml:space="preserve" overflow="hidden"><g transform="translate(56 -967)"><rect x="559" y="1633" width="189" height="292" stroke="#172C51" stroke-width="10.3125" stroke-miterlimit="8" fill="#8FAADC"/><rect x="748" y="1728" width="188" height="197" stroke="#172C51" stroke-width="10.3125" stroke-miterlimit="8" fill="#8FAADC"/><rect x="936" y="1908" width="189" height="16.9999" stroke="#172C51" stroke-width="10.3125" stroke-miterlimit="8" fill="#8FAADC"/><rect x="1125" y="1908" width="188" height="16.9999" stroke="#172C51" stroke-width="10.3125" stroke-miterlimit="8" fill="#8FAADC"/><text font-family="Calibri,Calibri_MSFontService,sans-serif" font-weight="400" font-size="83" transform="matrix(0.484419 -0.874836 0.874836 0.484419 457.571 2386)">Aircraft </text><text font-family="Calibri,Calibri_MSFontService,sans-serif" font-weight="400" font-size="83" transform="matrix(0.484419 -0.874836 0.874836 0.484419 586.645 2152)">D</text><text font-family="Calibri,Calibri_MSFontService,sans-serif" font-weight="400" font-size="83" transform="matrix(0.484419 -0.874836 0.874836 0.484419 611.345 2108)">esign</text><text font-family="Calibri,Calibri_MSFontService,sans-serif" font-weight="400" font-size="83" transform="matrix(0.484419 -0.874836 0.874836 0.484419 661.347 2336)">Optimization</text><text font-family="Calibri,Calibri_MSFontService,sans-serif" font-weight="400" font-size="83" transform="matrix(0.484419 -0.874836 0.874836 0.484419 845.713 2353)">Programming</text><text font-family="Calibri,Calibri_MSFontService,sans-serif" font-weight="400" font-size="83" transform="matrix(0.484419 -0.874836 0.874836 0.484419 1028.93 2375)">Dependencies</text><path d="M10.3125-4.15783e-06 10.3128 843.544-10.3122 843.544-10.3125 4.15783e-06ZM30.9378 833.232 0.000360892 895.107-30.9372 833.232Z" fill="#4472C4" transform="matrix(1 0 0 -1 457.5 1925.61)"/><text font-family="Calibri,Calibri_MSFontService,sans-serif" font-weight="400" font-size="83" transform="matrix(1 0 0 1 132.254 1331)">Relative </text><text font-family="Calibri,Calibri_MSFontService,sans-serif" font-weight="400" font-size="83" transform="matrix(1 0 0 1 32.2916 1430)">knowledge </text><text font-family="Calibri,Calibri_MSFontService,sans-serif" font-weight="400" font-size="83" transform="matrix(1 0 0 1 91.852 1529)">expected</text><rect x="1508" y="1506" width="188" height="416" stroke="#172C51" stroke-width="10.3125" stroke-miterlimit="8" fill="#4472C4"/><rect x="1696" y="1633" width="189" height="289" stroke="#172C51" stroke-width="10.3125" stroke-miterlimit="8" fill="#4472C4"/><rect x="1885" y="1506" width="188" height="416" stroke="#172C51" stroke-width="10.3125" stroke-miterlimit="8" fill="#4472C4"/><rect x="2073" y="1725" width="188" height="197" stroke="#172C51" stroke-width="10.3125" stroke-miterlimit="8" fill="#4472C4"/><text font-family="Calibri,Calibri_MSFontService,sans-serif" font-weight="400" font-size="83" transform="matrix(0.484419 -0.874836 0.874836 0.484419 1405.96 2383)">Aircraft </text><text font-family="Calibri,Calibri_MSFontService,sans-serif" font-weight="400" font-size="83" transform="matrix(0.484419 -0.874836 0.874836 0.484419 1535.04 2150)">D</text><text font-family="Calibri,Calibri_MSFontService,sans-serif" font-weight="400" font-size="83" transform="matrix(0.484419 -0.874836 0.874836 0.484419 1559.74 2105)">esign</text><text font-family="Calibri,Calibri_MSFontService,sans-serif" font-weight="400" font-size="83" transform="matrix(0.484419 -0.874836 0.874836 0.484419 1609.74 2333)">Optimization</text><text font-family="Calibri,Calibri_MSFontService,sans-serif" font-weight="400" font-size="83" transform="matrix(0.484419 -0.874836 0.874836 0.484419 1794.11 2350)">Programming</text><text font-family="Calibri,Calibri_MSFontService,sans-serif" font-weight="400" font-size="83" transform="matrix(0.484419 -0.874836 0.874836 0.484419 1977.32 2372)">Dependencies</text><rect x="2459" y="1191" width="188" height="734" stroke="#172C51" stroke-width="10.3125" stroke-miterlimit="8" fill="#2F5597"/><rect x="2647" y="1191" width="189" height="734" stroke="#172C51" stroke-width="10.3125" stroke-miterlimit="8" fill="#2F5597"/><rect x="2836" y="1191" width="188" height="734" stroke="#172C51" stroke-width="10.3125" stroke-miterlimit="8" fill="#2F5597"/><rect x="3024" y="1191" width="188" height="734" stroke="#172C51" stroke-width="10.3125" stroke-miterlimit="8" fill="#2F5597"/><text font-family="Calibri,Calibri_MSFontService,sans-serif" font-weight="400" font-size="83" transform="matrix(0.484419 -0.874836 0.874836 0.484419 2357.01 2386)">Aircraft </text><text font-family="Calibri,Calibri_MSFontService,sans-serif" font-weight="400" font-size="83" transform="matrix(0.484419 -0.874836 0.874836 0.484419 2486.08 2152)">D</text><text font-family="Calibri,Calibri_MSFontService,sans-serif" font-weight="400" font-size="83" transform="matrix(0.484419 -0.874836 0.874836 0.484419 2510.78 2108)">esign</text><text font-family="Calibri,Calibri_MSFontService,sans-serif" font-weight="400" font-size="83" transform="matrix(0.484419 -0.874836 0.874836 0.484419 2560.78 2336)">Optimization</text><text font-family="Calibri,Calibri_MSFontService,sans-serif" font-weight="400" font-size="83" transform="matrix(0.484419 -0.874836 0.874836 0.484419 2745.15 2353)">Programming</text><text font-family="Calibri,Calibri_MSFontService,sans-serif" font-weight="400" font-size="83" transform="matrix(0.484419 -0.874836 0.874836 0.484419 2928.37 2375)">Dependencies</text><text font-family="Calibri,Calibri_MSFontService,sans-serif" font-weight="400" font-size="83" transform="matrix(1 0 0 1 764.223 1112)">Level 1</text><text font-family="Calibri,Calibri_MSFontService,sans-serif" font-weight="400" font-size="83" transform="matrix(1 0 0 1 1712.62 1112)">Level 2</text><text font-family="Calibri,Calibri_MSFontService,sans-serif" font-weight="400" font-size="83" transform="matrix(1 0 0 1 2719.06 1112)">Level 3</text></g></svg>