<svg width="1838" height="1084" xmlns="http://www.w3.org/2000/svg" xmlns:xlink="http://www.w3.org/1999/xlink" xml:space="preserve" overflow="hidden"><g transform="translate(-1533 -744)"><path d="M1540 1550.17C1540 1520.25 1564.25 1496 1594.17 1496L3309.83 1496C3339.75 1496 3364 1520.25 3364 1550.17L3364 1766.83C3364 1796.75 3339.75 1821 3309.83 1821L1594.17 1821C1564.25 1821 1540 1796.75 1540 1766.83Z" stroke="#172C51" stroke-width="13.75" stroke-miterlimit="8" fill="#1F4E79" fill-rule="evenodd"/><text fill="#FFFFFF" font-family="Calibri,Calibri_MSFontService,sans-serif" font-weight="400" font-size="119" transform="matrix(1 0 0 1 2160.57 1699)">OpenMDAO</text><path d="M2511 1195.67C2511 1163.82 2536.82 1138 2568.67 1138L3306.33 1138C3338.18 1138 3364 1163.82 3364 1195.67L3364 1426.33C3364 1458.18 3338.18 1484 3306.33 1484L2568.67 1484C2536.82 1484 2511 1458.18 2511 1426.33Z" stroke="#172C51" stroke-width="13.75" stroke-miterlimit="8" fill="#1F4E79" fill-rule="evenodd"/><text fill="#FFFFFF" font-family="Calibri,Calibri_MSFontService,sans-serif" font-weight="400" font-size="119" transform="matrix(1 0 0 1 2771.46 1352)">Dymos</text><path d="M1542 1195.67C1542 1163.82 1567.82 1138 1599.67 1138L2453.33 1138C2485.18 1138 2511 1163.82 2511 1195.67L2511 1426.33C2511 1458.18 2485.18 1484 2453.33 1484L1599.67 1484C1567.82 1484 1542 1458.18 1542 1426.33Z" stroke="#172C51" stroke-width="13.75" stroke-miterlimit="8" fill="#5B9BD5" fill-rule="evenodd"/><text fill="#FFFFFF" font-family="Calibri,Calibri_MSFontService,sans-serif" font-weight="400" font-size="119" transform="matrix(1 0 0 1 1669.26 1280)">Aviary</text><text fill="#FFFFFF" font-family="Calibri,Calibri_MSFontService,sans-serif" font-weight="400" font-size="119" transform="matrix(1 0 0 1 1970.71 1280)">:</text><text fill="#FFFFFF" font-family="Calibri,Calibri_MSFontService,sans-serif" font-weight="400" font-size="119" transform="matrix(1 0 0 1 2029.72 1280)">models</text><path d="M1540 813.502C1540 778.983 1567.98 751 1602.5 751L3301.5 751C3336.02 751 3364 778.983 3364 813.502L3364 1063.5C3364 1098.02 3336.02 1126 3301.5 1126L1602.5 1126C1567.98 1126 1540 1098.02 1540 1063.5Z" stroke="#172C51" stroke-width="13.75" stroke-miterlimit="8" fill="#5B9BD5" fill-rule="evenodd"/><text fill="#FFFFFF" font-family="Calibri,Calibri_MSFontService,sans-serif" font-weight="400" font-size="119" transform="matrix(1 0 0 1 1792.68 979)">Aviary: platform and tool</text><path d="M2052 1332.5C2052 1317.86 2063.86 1306 2078.5 1306L2445.5 1306C2460.14 1306 2472 1317.86 2472 1332.5L2472 1438.5C2472 1453.14 2460.14 1465 2445.5 1465L2078.5 1465C2063.86 1465 2052 1453.14 2052 1438.5Z" stroke="#172C51" stroke-width="13.75" stroke-miterlimit="8" stroke-opacity="0.501961" fill="#1F4E79" fill-rule="evenodd" fill-opacity="0.501961"/><text fill="#FFFFFF" font-family="Calibri,Calibri_MSFontService,sans-serif" font-weight="400" font-size="83" transform="matrix(1 0 0 1 2146.67 1364)">FLOPS</text><text fill="#FFFFFF" font-family="Calibri,Calibri_MSFontService,sans-serif" font-weight="400" font-size="83" transform="matrix(1 0 0 1 2352.25 1364)">-</text><text fill="#FFFFFF" font-family="Calibri,Calibri_MSFontService,sans-serif" font-weight="400" font-size="83" transform="matrix(1 0 0 1 2127.39 1444)">inspired</text><path d="M1594 1335.5C1594 1320.86 1605.86 1309 1620.5 1309L1986.5 1309C2001.14 1309 2013 1320.86 2013 1335.5L2013 1441.5C2013 1456.14 2001.14 1468 1986.5 1468L1620.5 1468C1605.86 1468 1594 1456.14 1594 1441.5Z" stroke="#172C51" stroke-width="13.75" stroke-miterlimit="8" stroke-opacity="0.501961" fill="#1F4E79" fill-rule="evenodd" fill-opacity="0.501961"/><text fill="#FFFFFF" font-family="Calibri,Calibri_MSFontService,sans-serif" font-weight="400" font-size="83" transform="matrix(1 0 0 1 1701 1368)">GASP</text><text fill="#FFFFFF" font-family="Calibri,Calibri_MSFontService,sans-serif" font-weight="400" font-size="83" transform="matrix(1 0 0 1 1880.89 1368)">-</text><text fill="#FFFFFF" font-family="Calibri,Calibri_MSFontService,sans-serif" font-weight="400" font-size="83" transform="matrix(1 0 0 1 1668.89 1448)">inspired</text></g></svg>