<?xml version="1.0" encoding="UTF-8" standalone="no"?>
<!-- Created with Inkscape (http://www.inkscape.org/) -->

<svg
   version="1.1"
   id="svg2"
   xml:space="preserve"
   width="2000"
   height="1333.3333"
   viewBox="0 0 2000 1333.3333"
   sodipodi:docname="aviary.ai"
   xmlns:inkscape="http://www.inkscape.org/namespaces/inkscape"
   xmlns:sodipodi="http://sodipodi.sourceforge.net/DTD/sodipodi-0.dtd"
   xmlns="http://www.w3.org/2000/svg"
   xmlns:svg="http://www.w3.org/2000/svg"><defs
     id="defs6"><clipPath
       clipPathUnits="userSpaceOnUse"
       id="clipPath16"><path
         d="M 0,1000 H 1500 V 0 H 0 Z"
         id="path14" /></clipPath></defs><sodipodi:namedview
     id="namedview4"
     pagecolor="#ffffff"
     bordercolor="#666666"
     borderopacity="1.0"
     inkscape:pageshadow="2"
     inkscape:pageopacity="0.0"
     inkscape:pagecheckerboard="0" /><g
     id="g8"
     inkscape:groupmode="layer"
     inkscape:label="aviary"
     transform="matrix(1.3333333,0,0,-1.3333333,0,1333.3333)"><g
       id="g10"><g
         id="g12"
         clip-path="url(#clipPath16)"><g
           id="g18"
           transform="translate(741.4287,749.6538)"><path
             d="m 0,0 c 3.519,-3.557 6.857,-7.037 10.023,-10.453 h 125.286 v -253.473 h -253.475 v 253.473 h 22.76 c -1.483,3.446 -2.858,6.93 -4.098,10.453 h -29.114 v -274.379 h 274.379 l 0,274.379 z"
             style="fill:#ea9423;fill-opacity:1;fill-rule:nonzero;stroke:none"
             id="path20" /></g><g
           id="g22"
           transform="translate(764.835,668.5518)"><path
             d="m 0,0 c -3.611,24.086 -29.775,52.52 -69.507,89.073 -39.732,36.554 -13.791,78.332 -13.791,78.332 -52.537,-65.544 9.747,-106.445 39.713,-186.519 29.966,-80.075 -59.555,-123.354 -59.555,-123.354 33.117,0.495 89.664,22.614 120,80.055 C 47.197,-4.972 73.984,-8.76 73.984,-8.76 46.19,25.491 0,0 0,0"
             style="fill:#ea9423;fill-opacity:1;fill-rule:nonzero;stroke:none"
             id="path24" /></g><g
           id="g26"
           transform="translate(288.2212,167.1104)"><path
             d="m 0,0 h -33.221 l 60.565,153.329 c 3.234,8.178 7.795,13.928 13.672,17.25 5.878,3.322 13.416,4.984 22.616,4.984 9.028,0 16.483,-1.662 22.361,-4.984 5.877,-3.322 10.349,-9.072 13.416,-17.25 L 157.674,0 H 124.197 L 71.809,138.763 c -1.532,3.918 -4.344,5.878 -8.434,5.878 -4.087,0 -6.986,-1.96 -8.687,-5.878 z"
             style="fill:#231f20;fill-opacity:1;fill-rule:nonzero;stroke:none"
             id="path28" /></g><g
           id="g30"
           transform="translate(468.1318,339.6064)"><path
             d="m 0,0 52.387,-138.764 c 1.533,-3.921 4.345,-5.877 8.433,-5.877 3.918,0 6.728,1.956 8.433,5.877 L 124.197,0 h 33.476 l -60.82,-153.329 c -3.238,-8.179 -7.794,-13.928 -13.672,-17.25 -5.878,-3.322 -13.332,-4.984 -22.361,-4.984 -8.52,0 -15.887,1.578 -22.105,4.727 -6.221,3.151 -10.948,8.985 -14.182,17.507 L -33.222,0 Z"
             style="fill:#231f20;fill-opacity:1;fill-rule:nonzero;stroke:none"
             id="path32" /></g><path
           d="M 681.514,167.11 H 651.36 v 172.496 h 30.154 z"
           style="fill:#231f20;fill-opacity:1;fill-rule:nonzero;stroke:none"
           id="path34" /><g
           id="g36"
           transform="translate(740.2891,167.1104)"><path
             d="m 0,0 h -33.221 l 60.565,153.329 c 3.232,8.178 7.793,13.928 13.671,17.25 5.878,3.322 13.414,4.984 22.616,4.984 9.03,0 16.481,-1.662 22.359,-4.984 5.878,-3.322 10.353,-9.072 13.42,-17.25 L 157.675,0 H 124.198 L 71.812,138.763 c -1.534,3.918 -4.344,5.878 -8.438,5.878 -4.088,0 -6.983,-1.96 -8.688,-5.878 z"
             style="fill:#231f20;fill-opacity:1;fill-rule:nonzero;stroke:none"
             id="path38" /></g><g
           id="g40"
           transform="translate(1016.5371,339.6064)"><path
             d="m 0,0 c 9.711,0 18.055,-1.405 25.044,-4.216 6.984,-2.812 12.733,-6.56 17.249,-11.245 4.513,-4.688 7.836,-10.183 9.968,-16.483 2.127,-6.304 3.193,-12.865 3.193,-19.677 0,-5.455 -0.682,-10.861 -2.044,-16.227 -1.365,-5.368 -3.495,-10.394 -6.389,-15.078 -2.898,-4.687 -6.644,-8.816 -11.245,-12.394 -4.6,-3.577 -10.221,-6.305 -16.866,-8.178 l 40.121,-68.998 H 25.555 l -39.355,66.699 h -44.978 c -2.896,0 -4.344,-1.449 -4.344,-4.346 v -62.353 h -30.152 v 68.231 c 0,9.712 2.126,16.696 6.387,20.955 4.256,4.256 11.158,6.389 20.7,6.389 h 67.21 c 4.256,0 7.921,0.68 10.989,2.045 3.064,1.361 5.533,3.149 7.411,5.366 1.87,2.212 3.278,4.768 4.216,7.666 0.935,2.895 1.405,5.878 1.405,8.946 0,6.132 -1.918,11.455 -5.749,15.971 -3.834,4.512 -9.929,6.773 -18.272,6.773 H -93.531 V 0 Z"
             style="fill:#231f20;fill-opacity:1;fill-rule:nonzero;stroke:none"
             id="path42" /></g><g
           id="g44"
           transform="translate(1112.1113,339.6064)"><path
             d="M 0,0 48.3,-73.854 97.112,0 h 35.777 l -69.51,-98.131 v -74.365 H 32.967 v 74.365 L -36.543,0 Z"
             style="fill:#231f20;fill-opacity:1;fill-rule:nonzero;stroke:none"
             id="path46" /></g></g></g></g></svg>
