<svg width="3894" height="1513" xmlns="http://www.w3.org/2000/svg" xmlns:xlink="http://www.w3.org/1999/xlink" xml:space="preserve" overflow="hidden"><g transform="translate(-211 -496)"><path d="M218 752.838C218 614.856 329.856 503 467.838 503L1807.16 503C1945.14 503 2057 614.856 2057 752.838L2057 1752.16C2057 1890.14 1945.14 2002 1807.16 2002L467.838 2002C329.856 2002 218 1890.14 218 1752.16Z" stroke="#172C51" stroke-width="13.75" stroke-miterlimit="8" fill="#5B9BD5" fill-rule="evenodd"/><text fill="#FFFFFF" font-family="Calibri,Calibri_MSFontService,sans-serif" font-weight="400" font-size="128" transform="matrix(1 0 0 1 832.764 690)">Pre</text><text fill="#FFFFFF" font-family="Calibri,Calibri_MSFontService,sans-serif" font-weight="400" font-size="128" transform="matrix(1 0 0 1 1005.81 690)">-</text><text fill="#FFFFFF" font-family="Calibri,Calibri_MSFontService,sans-serif" font-weight="400" font-size="128" transform="matrix(1 0 0 1 1045.34 690)">mission</text><text fill="#FFFFFF" font-family="Calibri,Calibri_MSFontService,sans-serif" font-weight="400" font-size="110" transform="matrix(1 0 0 1 500.633 1883)">Values do not vary with time</text><path d="M314 775.501C314 745.953 337.953 722 367.501 722L733.499 722C763.047 722 787 745.953 787 775.501L787 989.499C787 1019.05 763.047 1043 733.499 1043L367.501 1043C337.953 1043 314 1019.05 314 989.499Z" stroke="#172C51" stroke-width="13.75" stroke-miterlimit="8" fill="#1F4E79" fill-rule="evenodd"/><text fill="#FFFFFF" font-family="Calibri,Calibri_MSFontService,sans-serif" font-weight="400" font-size="92" transform="matrix(1 0 0 1 362.963 913)">Geometry</text><path d="M844 1038.5C844 1008.95 867.953 985 897.501 985L1215.5 985C1245.05 985 1269 1008.95 1269 1038.5L1269 1252.5C1269 1282.05 1245.05 1306 1215.5 1306L897.501 1306C867.953 1306 844 1282.05 844 1252.5Z" stroke="#172C51" stroke-width="13.75" stroke-miterlimit="8" fill="#1F4E79" fill-rule="evenodd"/><text fill="#FFFFFF" font-family="Calibri,Calibri_MSFontService,sans-serif" font-weight="400" font-size="92" transform="matrix(1 0 0 1 905.462 1177)">Weights</text><path d="M1290 1327.5C1290 1297.95 1313.95 1274 1343.5 1274L1937.5 1274C1967.05 1274 1991 1297.95 1991 1327.5L1991 1541.5C1991 1571.05 1967.05 1595 1937.5 1595L1343.5 1595C1313.95 1595 1290 1571.05 1290 1541.5Z" stroke="#172C51" stroke-width="13.75" stroke-miterlimit="8" fill="#1F4E79" fill-rule="evenodd"/><text fill="#FFFFFF" font-family="Calibri,Calibri_MSFontService,sans-serif" font-weight="400" font-size="92" transform="matrix(1 0 0 1 1375.94 1411)">Aerodynamics </text><text fill="#FFFFFF" font-family="Calibri,Calibri_MSFontService,sans-serif" font-weight="400" font-size="92" transform="matrix(1 0 0 1 1344.25 1521)">pre</text><text fill="#FFFFFF" font-family="Calibri,Calibri_MSFontService,sans-serif" font-weight="400" font-size="92" transform="matrix(1 0 0 1 1469.08 1521)">-</text><text fill="#FFFFFF" font-family="Calibri,Calibri_MSFontService,sans-serif" font-weight="400" font-size="92" transform="matrix(1 0 0 1 1497.15 1521)">calculations</text><path d="M2259 752.838C2259 614.856 2370.86 503 2508.84 503L3848.16 503C3986.14 503 4098 614.856 4098 752.838L4098 1752.16C4098 1890.14 3986.14 2002 3848.16 2002L2508.84 2002C2370.86 2002 2259 1890.14 2259 1752.16Z" stroke="#172C51" stroke-width="13.75" stroke-miterlimit="8" fill="#5B9BD5" fill-rule="evenodd"/><text fill="#FFFFFF" font-family="Calibri,Calibri_MSFontService,sans-serif" font-weight="400" font-size="128" transform="matrix(1 0 0 1 2975.8 690)">Mission</text><text fill="#FFFFFF" font-family="Calibri,Calibri_MSFontService,sans-serif" font-weight="400" font-size="110" transform="matrix(1 0 0 1 2414.14 1883)">Values can vary across the mission</text><path d="M2346 698.501C2346 668.953 2369.95 645 2399.5 645L2833.5 645C2863.05 645 2887 668.953 2887 698.501L2887 912.499C2887 942.047 2863.05 966 2833.5 966L2399.5 966C2369.95 966 2346 942.047 2346 912.499Z" stroke="#172C51" stroke-width="13.75" stroke-miterlimit="8" fill="#1F4E79" fill-rule="evenodd"/><text fill="#FFFFFF" font-family="Calibri,Calibri_MSFontService,sans-serif" font-weight="400" font-size="92" transform="matrix(1 0 0 1 2417.89 837)">Propulsio</text><text fill="#FFFFFF" font-family="Calibri,Calibri_MSFontService,sans-serif" font-weight="400" font-size="92" transform="matrix(1 0 0 1 2767.05 837)">n</text><path d="M2863 1055.5C2863 1025.95 2886.95 1002 2916.5 1002L3440.5 1002C3470.05 1002 3494 1025.95 3494 1055.5L3494 1269.5C3494 1299.05 3470.05 1323 3440.5 1323L2916.5 1323C2886.95 1323 2863 1299.05 2863 1269.5Z" stroke="#172C51" stroke-width="13.75" stroke-miterlimit="8" fill="#1F4E79" fill-rule="evenodd"/><text fill="#FFFFFF" font-family="Calibri,Calibri_MSFontService,sans-serif" font-weight="400" font-size="92" transform="matrix(1 0 0 1 2913.53 1193)">Aerodynamics</text><path d="M3363 1420.67C3363 1391.03 3387.03 1367 3416.67 1367L4011.33 1367C4040.97 1367 4065 1391.03 4065 1420.67L4065 1635.33C4065 1664.97 4040.97 1689 4011.33 1689L3416.67 1689C3387.03 1689 3363 1664.97 3363 1635.33Z" stroke="#172C51" stroke-width="13.75" stroke-miterlimit="8" fill="#1F4E79" fill-rule="evenodd"/><text fill="#FFFFFF" font-family="Calibri,Calibri_MSFontService,sans-serif" font-weight="400" font-size="92" transform="matrix(1 0 0 1 3481.89 1504)">Equations of </text><text fill="#FFFFFF" font-family="Calibri,Calibri_MSFontService,sans-serif" font-weight="400" font-size="92" transform="matrix(1 0 0 1 3579.06 1614)">motion</text><path d="M1958 1058 2321 1058 2321 998 2441 1118 2321 1238 2321 1178 1958 1178Z" stroke="#203864" stroke-width="13.75" stroke-miterlimit="8" fill="#4472C4" fill-rule="evenodd"/></g></svg>